<svg width="508" height="489" viewBox="0 0 508 489" fill="none" xmlns="http://www.w3.org/2000/svg">
<rect width="508" height="489" fill="#F3F1E6"/>
<path d="M358.248 353.082C341.755 391.918 305.806 415 269.216 415C207.807 415 150 345.042 150 246.039C150 147.037 208.928 75 273.379 75C321.098 75 352.403 113.835 352.403 145.341C352.403 162.461 342.875 174.385 330.626 174.385C318.376 174.385 309.409 163.555 309.409 148.842C309.409 134.128 318.055 123.298 329.264 123.298C329.345 123.298 329.505 123.298 329.585 123.298C336.711 123.407 341.755 118.922 338.792 114.492C326.702 96.0039 304.284 79.2664 274.02 79.2664C210.929 79.2664 180.825 149.607 180.825 247.188C180.825 357.403 219.896 410.57 270.417 410.57C305.005 410.57 339.353 388.198 355.846 350.402L358.328 353.192L358.248 353.082Z" fill="black"/>
</svg>
